<svg width="97" height="38" viewBox="0 0 97 38" fill="none" xmlns="http://www.w3.org/2000/svg">
<path d="M1.8251 27.4284C1.43998 27.4284 1.1924 27.2634 1.1924 26.9608V26.8508C1.1924 26.163 2.26524 25.9429 2.26524 24.7876V18.3505C2.26524 17.1401 1.02734 17.0576 1.02734 16.3699V16.2598C1.02734 15.9848 1.21991 15.7647 1.57752 15.5997L4.87858 14.0591C5.51128 13.7565 5.75884 14.0867 5.75884 14.5818V16.6725C6.36406 14.9119 7.65695 13.9491 9.50006 13.9491C11.1231 13.9491 12.0584 15.0495 12.0584 16.4524C12.0584 17.6078 11.5907 18.6256 10.2703 18.6256C8.12461 18.6256 9.11491 16.2598 7.62946 16.2598C6.5291 16.2598 6.1715 17.7728 6.1715 19.2858V24.7876C6.1715 25.9429 7.51943 26.163 7.51943 26.8508V26.9608C7.51943 27.2634 7.27184 27.4284 6.91421 27.4284H1.8251ZM13.6696 27.4284C13.2845 27.4284 13.0644 27.2359 13.0644 26.9608V26.8508C13.0644 26.163 14.1097 25.9429 14.1097 24.7601V18.5431C14.1097 17.3327 13.0644 17.0301 13.0644 16.4249V16.3424C13.0644 16.0948 13.2845 15.9572 13.6145 15.7647L17.0806 14.0591C17.7684 13.7291 18.181 14.1142 18.181 14.5818V24.7601C18.181 25.9429 19.3639 26.163 19.3639 26.8508V26.9608C19.3639 27.2359 19.1163 27.4284 18.7312 27.4284H13.6696ZM13.4495 9.85032C13.4495 8.47488 14.5498 7.45703 16.1729 7.45703C17.7959 7.45703 18.8412 8.47488 18.8412 9.85032C18.8412 11.2533 17.7959 12.2711 16.1729 12.2711C14.5498 12.2711 13.4495 11.2533 13.4495 9.85032ZM30.8648 27.4559C30.4799 27.4559 30.2322 27.2634 30.2322 26.9883V26.8782C30.2322 26.1905 31.3051 25.9705 31.2226 24.7601L30.9474 19.6709C30.81 16.7275 30.0122 15.5171 28.5542 15.5171C27.0687 15.5171 26.2159 16.755 26.2159 18.5431V24.7876C26.2159 25.9705 27.3988 26.1905 27.3988 26.8782V26.9883C27.3988 27.2634 27.1512 27.4559 26.7661 27.4559H21.6495C21.2643 27.4559 21.0443 27.2634 21.0443 26.9883V26.8782C21.0443 26.1905 22.1997 25.9705 22.1997 24.7876V18.378C22.1997 17.1401 20.8517 17.0301 20.8517 16.3424V16.2324C20.8517 15.9572 21.0718 15.8197 21.4294 15.6547L24.6754 14.0591C25.3082 13.7291 25.6383 14.1142 25.6383 14.6368V16.1498C26.4085 14.7744 27.8665 13.9491 29.6822 13.9491C32.1855 13.9491 34.6337 15.4346 34.9362 19.8085L35.2663 24.7601C35.3489 25.9705 36.2566 26.1905 36.2566 26.8782V26.9883C36.2566 27.2634 36.0092 27.4559 35.624 27.4559H30.8648ZM43.3931 27.676C39.8443 27.676 37.4787 26.1905 37.4787 24.485C37.4787 23.4396 38.1939 22.972 39.1568 22.972C41.5498 22.972 40.642 26.6032 43.3931 26.6032C44.5209 26.6032 45.4013 26.0255 45.4013 24.7876C45.4013 21.1289 37.7261 23.4121 37.7261 17.9929C37.7261 15.6547 40.0369 13.9491 43.338 13.9491C46.8042 13.9491 48.9772 15.5446 48.9772 17.2502C48.9772 18.0479 48.2895 18.6806 47.4368 18.6806C45.1261 18.6806 45.9513 15.077 43.558 15.077C42.4576 15.077 41.7424 15.9298 41.7424 16.9201C41.7424 20.6888 49.2798 18.4881 49.2798 23.7422C49.2798 25.9705 47.0791 27.676 43.3931 27.676ZM57.4603 27.7035C53.6092 27.7035 50.8033 24.9526 50.8033 20.7163C50.8033 16.7275 53.8567 13.9491 57.4603 13.9491C61.0366 13.9491 62.6596 16.0398 62.6596 17.8554C62.6596 18.7907 62.1644 19.3408 61.4215 19.6709L55.3422 22.4493C56.0574 23.9623 57.3229 24.8426 58.9459 24.8426C60.4037 24.8426 61.5592 24.0999 62.0818 23.2471C62.4396 22.8345 63.0722 22.972 63.0448 23.5497C62.8796 25.1452 61.0089 27.7035 57.4603 27.7035ZM54.5996 18.8182C54.5996 19.6709 54.6819 20.4687 54.8744 21.1839L58.4507 19.3959C58.9182 19.1483 59.1659 18.6806 59.1659 18.1029C59.1659 17.1126 58.4233 15.1595 56.9377 15.1595C55.5073 15.1595 54.5996 16.7275 54.5996 18.8182Z" fill="#12303B"/>
<path d="M74.1335 27.4271C73.776 27.4271 73.5283 27.2621 73.5283 26.9594V26.8494C73.5283 26.1617 74.5738 25.9416 74.5186 24.7587L74.2435 19.4771C74.106 16.7262 73.3083 15.5158 71.8505 15.5158C70.3649 15.5158 69.512 16.7537 69.512 18.5418V24.7863C69.512 25.9416 70.6949 26.1617 70.6949 26.8494V26.9594C70.6949 27.2346 70.4198 27.4271 70.0349 27.4271H64.9457C64.5605 27.4271 64.313 27.2346 64.313 26.9594V26.8494C64.313 26.1617 65.4683 25.9416 65.4683 24.7863V11.0869C65.4683 9.87649 64.2305 9.76645 64.2305 9.10626V9.02371C64.2305 8.72112 64.4505 8.50105 64.7805 8.33601L68.4116 6.74049C69.0168 6.46541 69.402 6.68549 69.402 7.23567L69.3746 15.4883C70.1998 14.498 71.4379 13.9478 72.9782 13.9478C75.4816 13.9478 77.9023 15.4333 78.1775 19.5871L78.5349 24.7313C78.6449 25.9416 79.5253 26.1617 79.5253 26.8494V26.9594C79.5253 27.2621 79.2779 27.4271 78.9201 27.4271H74.1335ZM87.1928 27.7022C83.8366 27.7022 80.7281 25.2264 80.7281 20.7975C80.7281 16.7262 83.6992 13.9478 87.2203 13.9478C88.8158 13.9478 90.0262 14.498 90.8788 15.4058V14.8006C90.8788 14.2504 91.3191 13.9753 92.0343 14.1129L94.9228 14.608C95.3077 14.6905 95.528 14.9106 95.528 15.2957V15.3783C95.528 15.9009 94.3451 16.231 94.3451 17.579V30.7282C94.3451 31.9111 95.4177 32.1586 95.4177 32.8464V32.9289C95.4177 33.2315 95.1977 33.3964 94.8125 33.3964H89.9162C89.531 33.3964 89.2833 33.2315 89.2833 32.9289V32.8464C89.2833 32.1586 90.4662 31.9111 90.4662 30.7282V26.5743C89.6136 27.3171 88.4306 27.7022 87.1928 27.7022ZM84.6618 19.1745C84.5518 22.2004 85.8173 26.4368 88.1006 26.5193C89.2284 26.5193 90.4662 25.529 90.4662 23.5759V18.7343C90.4662 16.8087 89.0633 15.1307 87.4403 15.1307C85.7622 15.1307 84.7169 16.6162 84.6618 19.1745Z" fill="#4699c2"/>
<path d="M13.7037 8.35765C13.4522 8.79392 13.3201 9.28889 13.3203 9.79245C13.3205 10.2961 13.4533 10.7908 13.7053 11.2269C13.9572 11.663 14.3195 12.0251 14.7557 12.2768C15.1919 12.5286 15.6867 12.6611 16.1903 12.6611C16.694 12.6611 17.1887 12.5286 17.6249 12.2768C18.0611 12.0251 18.4234 11.663 18.6753 11.2269C18.9273 10.7908 19.0601 10.2961 19.0603 9.79245C19.0605 9.28881 18.9282 8.79398 18.6767 8.35765L16.9928 5.76559C16.6156 5.185 15.7657 5.18489 15.3885 5.76536L13.7037 8.35765Z" fill="#12303B"/>
</svg>
